<?xml version="1.0" encoding="utf-8"?><svg version="1.1" id="Layer_1" xmlns="http://www.w3.org/2000/svg" xmlns:xlink="http://www.w3.org/1999/xlink" x="0px" y="0px" viewBox="0 0 114.314 122.881" enable-background="new 0 0 114.314 122.881" xml:space="preserve"><g><path fill-rule="evenodd" clip-rule="evenodd" d="M69.879,71.653h35.781c4.762,0,8.654,3.897,8.654,8.653v33.92 c0,4.761-3.898,8.654-8.654,8.654H69.879c-4.76,0-8.652-3.894-8.652-8.654v-33.92C61.227,75.551,65.119,71.653,69.879,71.653 L69.879,71.653L69.879,71.653z M26.264,78.121c-1.728,0-3.167-1.564-3.167-3.455c0-1.934,1.397-3.456,3.167-3.456h16.635 c1.728,0,3.168,1.564,3.168,3.456c0,1.933-1.399,3.455-3.168,3.455H26.264L26.264,78.121L26.264,78.121z M101.449,59.661h-6.951 V8.105c0-0.329-0.125-0.617-0.33-0.823c-0.205-0.205-0.494-0.329-0.822-0.329H8.064c-0.329,0-0.618,0.124-0.822,0.329 C7.034,7.488,6.911,7.775,6.911,8.105v96.35c0,0.329,0.124,0.616,0.329,0.822c0.206,0.205,0.494,0.329,0.822,0.329h37.108v6.951 c-44.6,0-7.982,0-37.067,0c-2.222,0-4.278-0.906-5.717-2.386C0.905,108.69,0,106.675,0,104.453V8.105 c0-2.222,0.905-4.278,2.387-5.719C3.867,0.905,5.883,0,8.104,0h85.283c2.221,0,4.279,0.905,5.719,2.386 c1.48,1.481,2.385,3.497,2.385,5.719C101.49,47.892,101.449-1.153,101.449,59.661L101.449,59.661z M26.223,33.117 c-1.728,0-3.167-1.564-3.167-3.457c0-1.933,1.399-3.456,3.167-3.456h48.922c1.729,0,3.166,1.564,3.166,3.455 c0,1.934-1.396,3.457-3.166,3.457L26.223,33.117L26.223,33.117L26.223,33.117z M26.223,55.619c-1.728,0-3.167-1.564-3.167-3.455 c0-1.934,1.399-3.456,3.167-3.456l48.922,0c1.729,0,3.166,1.563,3.166,3.456c0,1.933-1.396,3.455-3.166,3.455L26.223,55.619 L26.223,55.619L26.223,55.619z M77.186,100.626c-1.854,0-3.357-1.503-3.357-3.356s1.504-3.356,3.357-3.356h7.225v-7.231 c0-1.854,1.504-3.356,3.357-3.356c1.852,0,3.355,1.503,3.355,3.356v7.231h7.232c1.852,0,3.355,1.503,3.355,3.356 s-1.504,3.356-3.355,3.356h-7.227v7.231c0,1.854-1.504,3.356-3.355,3.356c-1.854,0-3.357-1.503-3.357-3.356v-7.231H77.186 L77.186,100.626L77.186,100.626z"/></g></svg>