<svg id="Layer_1" data-name="Layer 1" xmlns="http://www.w3.org/2000/svg" viewBox="0 0 122.88 116.76"><title>cleaning</title><path fill="#fff" d="M3.55,35.29a16.83,16.83,0,0,1,2.17-11A16.25,16.25,0,0,1,11,19a19,19,0,0,1,7-2.62A21,21,0,0,1,30.11,18,17.48,17.48,0,0,1,36,11.39,19.61,19.61,0,0,1,47,8.32,18.2,18.2,0,0,1,64.6,22.67a17.16,17.16,0,0,1,7.92-2.15,11.08,11.08,0,0,1,5.36,1.32,11.45,11.45,0,0,1,4,3.67,19.27,19.27,0,0,1,3,10.38,5.28,5.28,0,0,1,.89,2.68,7.69,7.69,0,0,1,0,1.27,2.74,2.74,0,0,1-.08.43L78.57,71.19c-1.39.76-3,1.48-4.54,2.17l7.37-34a1.92,1.92,0,0,0,0-.48,1.12,1.12,0,0,0-.09-.44,1.45,1.45,0,0,1-.22-.21,2.42,2.42,0,0,0-.72-.16,6.16,6.16,0,0,0-.86,0H7a.3.3,0,0,0-.18.08,4.5,4.5,0,0,0-.12,2l11.1,47.68c2.12,1,1,.66,3.38.82a28.27,28.27,0,0,0,14.42-3.2A39.83,39.83,0,0,0,56.91,54.62,6.1,6.1,0,0,1,59.57,43h0a6.11,6.11,0,0,1,1.64,12A44.3,44.3,0,0,1,42.9,86a19.61,19.61,0,0,0-8.23,4.52A31.18,31.18,0,0,1,20.89,92.9c-1.8-.12-.19.41-1.89-.08,2.64,9.9,4.85,9.86,13,9.71l1.48,0c.25.57.53,1.14.84,1.72a13.57,13.57,0,0,0,1.82,2.58l-4.08,0c-11.54.22-14.08.27-17.81-15.35h0L14,90.7a22.93,22.93,0,0,1-4.75-3.64C1.12,78.91-3,62.92,2.5,36.88a2.18,2.18,0,0,1,.83-1.3,3.15,3.15,0,0,1,.22-.29ZM89.63,59.82a4.86,4.86,0,0,1,3.26-1.4l12.24,1.76c2.66.38,5.26,1.19,5.44,4.47a28.9,28.9,0,0,1-.37,4l-.1.86c-.35,3.23-1.25,2.86-3.9,4.15,6.61,10.83,14.23,22.28,16.59,35.14.51,2.64-1.18,4.37-4.53,5.44l-6,1.11c.59-7-1.25-14.32-5.17-22,1.07,8.71,2.15,17.2.72,22.22l-6.17,1.15c-.89-2.81-1.62-5-2.88-5.88l-1.43,5.39L87,115.76A40.25,40.25,0,0,0,93.59,97.2c-3.25,7.23-6.87,12.59-10.93,15.8-1.9,2-3.56,2.35-5,1.1-1-.9-.86-1.45-.64-2.75a16.62,16.62,0,0,1,1.87-5.14c-2.1,2.35-3.42,2.92-4.6,4.18-3.33,3.57-9.1,3-10-1.94-.6-3.17,1.52-4.19,3.66-6.44l3.73-3.89a72.35,72.35,0,0,1-12.58,6.69c-4.85,1.82-4.86,1.62-9.31-.68-6-3.09-10.45-6.63-2.12-8.76C63,90.33,78,84.39,89.75,71a4.17,4.17,0,0,1-2.12-2.87c-.33-1.72.79-7.06,2-8.33Zm16.62-55.1L97.16,50.78c-.84,7.71,8.12,8.41,9.55.83L115.6,5.48c-.21-6.43-7.49-7.84-9.35-.76ZM12.52,84.18,4.7,50.61C3.06,67.44,6.48,78.16,12.33,84l.19.18Z"/></svg>
