<?xml version="1.0" encoding="utf-8"?><svg version="1.1" id="Layer_1" xmlns="http://www.w3.org/2000/svg" xmlns:xlink="http://www.w3.org/1999/xlink" x="0px" y="0px" viewBox="0 0 122.88 122.89" style="enable-background:new 0 0 122.88 122.89" xml:space="preserve"><g><path d="M49.06,1.27c2.17-0.45,4.34-0.77,6.48-0.98c2.2-0.21,4.38-0.31,6.53-0.29c1.21,0.01,2.18,1,2.17,2.21 c-0.01,0.93-0.6,1.72-1.42,2.03c-9.15,3.6-16.47,10.31-20.96,18.62c-4.42,8.17-6.1,17.88-4.09,27.68l0.01,0.07 c2.29,11.06,8.83,20.15,17.58,25.91c8.74,5.76,19.67,8.18,30.73,5.92l0.07-0.01c7.96-1.65,14.89-5.49,20.3-10.78 c5.6-5.47,9.56-12.48,11.33-20.16c0.27-1.18,1.45-1.91,2.62-1.64c0.89,0.21,1.53,0.93,1.67,1.78c2.64,16.2-1.35,32.07-10.06,44.71 c-8.67,12.58-22.03,21.97-38.18,25.29c-16.62,3.42-33.05-0.22-46.18-8.86C14.52,104.1,4.69,90.45,1.27,73.83 C-2.07,57.6,1.32,41.55,9.53,28.58C17.78,15.57,30.88,5.64,46.91,1.75c0.31-0.08,0.67-0.16,1.06-0.25l0.01,0l0,0L49.06,1.27 L49.06,1.27z M51.86,5.2c-0.64,0.11-1.28,0.23-1.91,0.36l-1.01,0.22l0,0c-0.29,0.07-0.63,0.14-1,0.23 c-14.88,3.61-27.05,12.83-34.7,24.92C5.61,42.98,2.46,57.88,5.56,72.94c3.18,15.43,12.31,28.11,24.51,36.15 c12.19,8.03,27.45,11.41,42.88,8.23c15-3.09,27.41-11.81,35.46-23.49c6.27-9.09,9.9-19.98,10.09-31.41 c-2.27,4.58-5.3,8.76-8.96,12.34c-6,5.86-13.69,10.13-22.51,11.95l-0.01,0c-12.26,2.52-24.38-0.16-34.07-6.54 c-9.68-6.38-16.93-16.45-19.45-28.7l0-0.01C31.25,40.58,33.1,29.82,38,20.77C41.32,14.63,46.05,9.27,51.86,5.2L51.86,5.2z"/></g></svg>