<svg xmlns="http://www.w3.org/2000/svg" xmlns:xlink="http://www.w3.org/1999/xlink" version="1.1" width="24" height="24" fill="#000" x="0px" y="0px" viewBox="0 0 100 125" style="enable-background:new 0 0 100 100;" xml:space="preserve"><g><path d="M91.6,6.117H59.132c-1.951,0-3.534,1.582-3.534,3.534s1.582,3.534,3.534,3.534h28.934v27.633   c0,1.951,1.582,3.534,3.534,3.534c1.951,0,3.534-1.582,3.534-3.534V9.65C95.133,7.699,93.551,6.117,91.6,6.117z"/><path d="M40.759,6.117H8.4c-1.951,0-3.534,1.582-3.534,3.534v31.167c0,1.951,1.582,3.534,3.534,3.534s3.534-1.582,3.534-3.534   V13.184h28.825c1.951,0,3.534-1.582,3.534-3.534S42.71,6.117,40.759,6.117z"/><path d="M40.759,86.816H11.934V59.183c0-1.951-1.582-3.534-3.534-3.534s-3.534,1.582-3.534,3.534V90.35   c0,1.951,1.582,3.534,3.534,3.534h32.358c1.951,0,3.534-1.582,3.534-3.534C44.292,88.398,42.71,86.816,40.759,86.816z"/><path d="M91.6,55.649c-1.951,0-3.534,1.582-3.534,3.534v27.633H59.132c-1.951,0-3.534,1.582-3.534,3.534   c0,1.951,1.582,3.534,3.534,3.534H91.6c1.951,0,3.534-1.582,3.534-3.534V59.183C95.133,57.232,93.551,55.649,91.6,55.649z"/></g></svg>