<?xml version="1.0" encoding="utf-8"?><svg version="1.1" fill="#fff" id="Layer_1" xmlns="http://www.w3.org/2000/svg" xmlns:xlink="http://www.w3.org/1999/xlink" x="0px" y="0px" viewBox="0 0 240 240" style="enable-background:new 0 0 240 240" xml:space="preserve"><g><path d="M58.57,25.81c-2.13-3.67-0.87-8.38,2.8-10.51c3.67-2.13,8.38-0.88,10.51,2.8l9.88,17.1c2.13,3.67,0.87,8.38-2.8,10.51 c-3.67,2.13-8.38,0.88-10.51-2.8L58.57,25.81L58.57,25.81z M120,51.17c19.01,0,36.21,7.7,48.67,20.16 C181.12,83.79,188.83,101,188.83,120c0,19.01-7.7,36.21-20.16,48.67c-12.46,12.46-29.66,20.16-48.67,20.16 c-19.01,0-36.21-7.7-48.67-20.16C58.88,156.21,51.17,139.01,51.17,120c0-19.01,7.7-36.21,20.16-48.67 C83.79,58.88,101,51.17,120,51.17L120,51.17z M158.27,81.73c-9.79-9.79-23.32-15.85-38.27-15.85c-14.95,0-28.48,6.06-38.27,15.85 c-9.79,9.79-15.85,23.32-15.85,38.27c0,14.95,6.06,28.48,15.85,38.27c9.79,9.79,23.32,15.85,38.27,15.85 c14.95,0,28.48-6.06,38.27-15.85c9.79-9.79,15.85-23.32,15.85-38.27C174.12,105.05,168.06,91.52,158.27,81.73L158.27,81.73z M113.88,7.71c0-4.26,3.45-7.71,7.71-7.71c4.26,0,7.71,3.45,7.71,7.71v19.75c0,4.26-3.45,7.71-7.71,7.71 c-4.26,0-7.71-3.45-7.71-7.71V7.71L113.88,7.71z M170.87,19.72c2.11-3.67,6.8-4.94,10.48-2.83c3.67,2.11,4.94,6.8,2.83,10.48 l-9.88,17.1c-2.11,3.67-6.8,4.94-10.48,2.83c-3.67-2.11-4.94-6.8-2.83-10.48L170.87,19.72L170.87,19.72z M214.19,58.57 c3.67-2.13,8.38-0.87,10.51,2.8c2.13,3.67,0.88,8.38-2.8,10.51l-17.1,9.88c-3.67,2.13-8.38,0.87-10.51-2.8 c-2.13-3.67-0.88-8.38,2.8-10.51L214.19,58.57L214.19,58.57z M232.29,113.88c4.26,0,7.71,3.45,7.71,7.71 c0,4.26-3.45,7.71-7.71,7.71h-19.75c-4.26,0-7.71-3.45-7.71-7.71c0-4.26,3.45-7.71,7.71-7.71H232.29L232.29,113.88z M220.28,170.87 c3.67,2.11,4.94,6.8,2.83,10.48c-2.11,3.67-6.8,4.94-10.48,2.83l-17.1-9.88c-3.67-2.11-4.94-6.8-2.83-10.48 c2.11-3.67,6.8-4.94,10.48-2.83L220.28,170.87L220.28,170.87z M181.43,214.19c2.13,3.67,0.87,8.38-2.8,10.51 c-3.67,2.13-8.38,0.88-10.51-2.8l-9.88-17.1c-2.13-3.67-0.87-8.38,2.8-10.51c3.67-2.13,8.38-0.88,10.51,2.8L181.43,214.19 L181.43,214.19z M126.12,232.29c0,4.26-3.45,7.71-7.71,7.71c-4.26,0-7.71-3.45-7.71-7.71v-19.75c0-4.26,3.45-7.71,7.71-7.71 c4.26,0,7.71,3.45,7.71,7.71V232.29L126.12,232.29z M69.13,220.28c-2.11,3.67-6.8,4.94-10.48,2.83c-3.67-2.11-4.94-6.8-2.83-10.48 l9.88-17.1c2.11-3.67,6.8-4.94,10.48-2.83c3.67,2.11,4.94,6.8,2.83,10.48L69.13,220.28L69.13,220.28z M25.81,181.43 c-3.67,2.13-8.38,0.87-10.51-2.8c-2.13-3.67-0.88-8.38,2.8-10.51l17.1-9.88c3.67-2.13,8.38-0.87,10.51,2.8 c2.13,3.67,0.88,8.38-2.8,10.51L25.81,181.43L25.81,181.43z M7.71,126.12c-4.26,0-7.71-3.45-7.71-7.71c0-4.26,3.45-7.71,7.71-7.71 h19.75c4.26,0,7.71,3.45,7.71,7.71c0,4.26-3.45,7.71-7.71,7.71H7.71L7.71,126.12z M19.72,69.13c-3.67-2.11-4.94-6.8-2.83-10.48 c2.11-3.67,6.8-4.94,10.48-2.83l17.1,9.88c3.67,2.11,4.94,6.8,2.83,10.48c-2.11,3.67-6.8,4.94-10.48,2.83L19.72,69.13L19.72,69.13z"/></g></svg>
