<svg xmlns="http://www.w3.org/2000/svg" xmlns:xlink="http://www.w3.org/1999/xlink" xmlns:sketch="http://www.bohemiancoding.com/sketch/ns" viewBox="0 0 58 62.5" width="30" height="30" version="1.1" x="0px" y="0px"><title>69 - Upload (Solid)</title><desc>Created with Sketch.</desc><g stroke="none" stroke-width="1" fill="none" fill-rule="evenodd" sketch:type="MSPage"><g sketch:type="MSLayerGroup" fill="#000000"><path d="M17,16 C17.512,16 18.024,15.805 18.414,15.414 L27,6.828 L27,40 C27,41.104 27.896,42 29,42 C30.105,42 31,41.104 31,40 L31,6.828 L39.586,15.414 C39.976,15.805 40.488,16 41,16 C41.512,16 42.024,15.805 42.414,15.414 C43.195,14.633 43.195,13.367 42.414,12.586 L30.415,0.587 C30.322,0.494 30.22,0.41 30.109,0.337 C30.059,0.303 30.004,0.28 29.952,0.251 C29.89,0.217 29.831,0.18 29.765,0.153 C29.698,0.125 29.629,0.109 29.56,0.089 C29.504,0.073 29.45,0.051 29.392,0.039 C29.133,-0.012 28.867,-0.012 28.608,0.039 C28.55,0.051 28.496,0.073 28.44,0.089 C28.371,0.11 28.302,0.125 28.235,0.153 C28.169,0.18 28.11,0.218 28.047,0.252 C27.995,0.28 27.941,0.303 27.891,0.337 C27.781,0.41 27.678,0.494 27.585,0.587 L15.586,12.586 C14.805,13.367 14.805,14.633 15.586,15.414 C15.976,15.805 16.488,16 17,16" sketch:type="MSShapeGroup"/><path d="M56,34 C54.896,34 54,34.895 54,36 L54,46 L4,46 L4,36 C4,34.895 3.105,34 2,34 C0.896,34 0,34.895 0,36 L0,50 L58,50 L58,36 C58,34.895 57.105,34 56,34" sketch:type="MSShapeGroup"/></g></g></svg>