<?xml version="1.0" encoding="iso-8859-1"?>
<!-- Generator: Adobe Illustrator 19.0.0, SVG Export Plug-In . SVG Version: 6.00 Build 0)  -->
<svg version="1.1" id="Layer_1" xmlns="http://www.w3.org/2000/svg" xmlns:xlink="http://www.w3.org/1999/xlink" x="0px" y="0px"
	 viewBox="0 0 512 512" style="enable-background:new 0 0 512 512;" xml:space="preserve">
<g>
	<g>
		<path d="M498.322,173.278c6.66-10.754,11.638-22.872,11.638-35.079c0-28.401-23.105-51.506-51.506-51.506
			c-3.298,0-6.522,0.324-9.651,0.92C400.102,31.879,330.126,0,256,0C187.62,0,123.333,26.628,74.98,74.98
			C26.628,123.333,0,187.62,0,256s26.628,132.667,74.98,181.02C123.333,485.372,187.62,512,256,512s132.667-26.628,181.02-74.98
			C485.372,388.667,512,324.38,512,256C512,227.659,507.39,199.845,498.322,173.278z M458.454,107.092
			c17.153,0,31.108,13.955,31.108,31.108c0,17.779-18.793,39.425-31.116,51.127c-12.325-11.678-31.099-33.284-31.099-51.127
			C427.347,121.046,441.301,107.092,458.454,107.092z M428.942,96.024c-13.285,9.325-21.994,24.747-21.994,42.175
			c0,34.802,40.437,68.887,45.048,72.659c1.879,1.537,4.168,2.305,6.458,2.305c2.29,0,4.579-0.768,6.458-2.305
			c1.873-1.532,9.652-8.063,18.234-17.61c4.669,16.936,7.421,34.353,8.21,52.042h-87.604
			c-1.493-62.836-16.094-121.674-41.511-166.672c-11.065-19.591-23.684-35.674-37.412-47.968
			C364.367,42.709,400.324,65.088,428.942,96.024z M245.801,23.208v222.083H128.649c0.781-31.526,5.005-61.901,12.351-89.753
			c11.893,23.506,34.296,42.372,37.657,45.121c1.879,1.537,4.168,2.305,6.458,2.305s4.579-0.768,6.458-2.305
			c4.611-3.772,45.048-37.857,45.048-72.659c0-28.401-23.105-51.506-51.506-51.506c-3.761,0-7.426,0.416-10.961,1.186
			C194.631,46.02,219.526,27.108,245.801,23.208z M154.008,128c0-17.153,13.955-31.108,31.108-31.108s31.108,13.955,31.108,31.108
			c0,17.779-18.793,39.425-31.116,51.127C172.783,167.448,154.008,145.842,154.008,128z M187.147,30.671
			c-13.719,12.292-26.329,28.368-37.388,47.948c-25.417,44.998-40.018,103.835-41.511,166.672H20.652
			C25.206,144.019,93.989,59.194,187.147,30.671z M20.614,265.689h87.613c1.359,63.219,15.978,122.451,41.532,167.692
			c11.059,19.579,23.669,35.655,37.388,47.947C93.677,452.71,24.75,367.411,20.614,265.689z M245.801,488.793
			c-29.183-4.333-56.667-27.177-78.281-65.443c-23.869-42.257-37.553-97.93-38.892-157.66h117.172v53.453
			c-23.782,4.547-41.817,25.491-41.817,50.579c0,30.478,31.015,60.408,41.817,69.906V488.793z M255.482,420.848
			c-12.325-11.678-31.099-33.284-31.099-51.127c0-17.153,13.955-31.108,31.108-31.108s31.108,13.955,31.108,31.108
			C286.598,387.5,267.805,409.146,255.482,420.848z M266.2,488.793v-50.07c11.604-10.379,40.797-39.429,40.797-69.001
			c0-24.728-17.52-45.435-40.797-50.379V23.208c29.183,4.333,56.667,27.177,78.281,65.443c23.734,42.017,37.4,97.296,38.871,156.64
			h-47.799c-5.633,0-10.199,4.566-10.199,10.199c0,5.633,4.566,10.198,10.199,10.198h47.819
			c-1.338,59.73-15.022,115.403-38.892,157.66C322.866,461.616,295.383,484.46,266.2,488.793z M324.853,481.329
			c13.719-12.292,26.329-28.368,37.388-47.948c25.554-45.241,40.174-104.472,41.532-167.692h87.613
			C487.25,367.411,418.323,452.71,324.853,481.329z"/>
	</g>
</g>
<g>
	<g>
		<path d="M298.837,245.291h-6.12c-5.633,0-10.199,4.566-10.199,10.199c0,5.633,4.566,10.199,10.199,10.199h6.12
			c5.633,0,10.199-4.566,10.199-10.199S304.47,245.291,298.837,245.291z"/>
	</g>
</g>
<g>
	<g>
		<path d="M458.454,125.45c-5.633,0-10.199,4.566-10.199,10.199v4.08c0,5.633,4.566,10.199,10.199,10.199
			c5.633,0,10.199-4.566,10.199-10.199v-4.08C468.653,130.016,464.087,125.45,458.454,125.45z"/>
	</g>
</g>
<g>
	<g>
		<path d="M185.116,115.251c-5.633,0-10.199,4.566-10.199,10.199v4.08c0,5.633,4.566,10.199,10.199,10.199
			s10.199-4.566,10.199-10.199v-4.08C195.315,119.817,190.749,115.251,185.116,115.251z"/>
	</g>
</g>
<g>
	<g>
		<path d="M255.49,356.972c-5.633,0-10.199,4.566-10.199,10.199v4.08c0,5.633,4.566,10.199,10.199,10.199
			c5.633,0,10.199-4.566,10.199-10.199v-4.08C265.689,361.538,261.123,356.972,255.49,356.972z"/>
	</g>
</g>
<g>
</g>
<g>
</g>
<g>
</g>
<g>
</g>
<g>
</g>
<g>
</g>
<g>
</g>
<g>
</g>
<g>
</g>
<g>
</g>
<g>
</g>
<g>
</g>
<g>
</g>
<g>
</g>
<g>
</g>
</svg>
